<?xml version="1.0" encoding="UTF-8"?>
<svg width="229px" height="229px" viewBox="0 0 229 229" version="1.1" xmlns="http://www.w3.org/2000/svg" xmlns:xlink="http://www.w3.org/1999/xlink">
    <title>silver-star</title>
    <g id="Page-1" stroke="none" stroke-width="1" fill="none" fill-rule="evenodd" stroke-linecap="round" stroke-linejoin="round">
        <g id="silver-star" transform="translate(1.3, 1.3)" stroke="#140000">
            <g id="Calque_2" transform="translate(0, 0)" fill="#140000" fill-rule="nonzero">
                <polygon id="XMLID_15_" points="113.4 -1.0658141e-14 90.8 68.1 28.4 28.4 68.1 90.8 -1.0658141e-14 113.4 68.1 136.1 28.4 198.5 90.8 158.8 113.4 226.8 136.1 158.8 198.5 198.5 158.8 136.1 226.8 113.4 158.8 90.8 198.5 28.4 136.1 68.1"></polygon>
            </g>
            <g id="Calque_1" transform="translate(0, 0)">
                <g id="XMLID_1_" transform="translate(-0, -0)">
                    <line x1="113.4" y1="3.55271368e-15" x2="85.1" y2="85.1" id="XMLID_4_"></line>
                    <line x1="85.1" y1="85.1" x2="3.55271368e-15" y2="113.4" id="XMLID_5_"></line>
                    <line x1="28.4" y1="28.4" x2="90.8" y2="68.1" id="XMLID_6_"></line>
                    <line x1="28.4" y1="28.4" x2="68.1" y2="90.8" id="XMLID_7_"></line>
                    <line x1="56.7" y1="3.55271368e-15" x2="90.8" y2="68.1" id="XMLID_8_"></line>
                    <line x1="3.55271368e-15" y1="56.7" x2="68.1" y2="90.8" id="XMLID_9_"></line>
                    <line x1="113.4" y1="3.55271368e-15" x2="113.4" y2="107.3" id="XMLID_10_"></line>
                    <line x1="107.9" y1="113.4" x2="3.55271368e-15" y2="113.4" id="XMLID_11_"></line>
                    <path d="M107.8,113.4 C107.8,110.3 110.3,107.7 113.5,107.7" id="XMLID_13_"></path>
                    <line x1="0.1" y1="113.4" x2="85.2" y2="141.8" id="XMLID_23_"></line>
                    <line x1="85.2" y1="141.8" x2="113.5" y2="226.8" id="XMLID_22_"></line>
                    <line x1="28.5" y1="198.5" x2="68.2" y2="136.1" id="XMLID_21_"></line>
                    <line x1="28.5" y1="198.5" x2="90.8" y2="158.8" id="XMLID_20_"></line>
                    <line x1="0.1" y1="170.1" x2="68.2" y2="136.1" id="XMLID_19_"></line>
                    <line x1="56.8" y1="226.8" x2="90.8" y2="158.8" id="XMLID_18_"></line>
                    <line x1="113.5" y1="119" x2="113.5" y2="226.8" id="XMLID_16_"></line>
                    <path d="M113.4,119.1 C110.3,119.1 107.7,116.6 107.7,113.4" id="XMLID_14_"></path>
                    <line x1="113.4" y1="226.8" x2="141.8" y2="141.8" id="XMLID_35_"></line>
                    <line x1="141.8" y1="141.8" x2="226.8" y2="113.4" id="XMLID_34_"></line>
                    <line x1="198.5" y1="198.5" x2="136.1" y2="158.8" id="XMLID_33_"></line>
                    <line x1="198.5" y1="198.5" x2="158.8" y2="136.1" id="XMLID_32_"></line>
                    <line x1="170.1" y1="226.8" x2="136.1" y2="158.8" id="XMLID_31_"></line>
                    <line x1="226.8" y1="170.1" x2="158.8" y2="136.1" id="XMLID_30_"></line>
                    <line x1="119" y1="113.4" x2="226.8" y2="113.4" id="XMLID_28_"></line>
                    <path d="M119.1,113.4 C119.1,116.5 116.6,119.1 113.4,119.1" id="XMLID_26_"></path>
                    <line x1="226.8" y1="113.4" x2="141.8" y2="85.1" id="XMLID_47_"></line>
                    <line x1="113.4" y1="3.55271368e-15" x2="141.8" y2="85.1" id="XMLID_46_"></line>
                    <line x1="198.5" y1="28.4" x2="158.8" y2="90.8" id="XMLID_45_"></line>
                    <line x1="198.5" y1="28.4" x2="136.1" y2="68.1" id="XMLID_44_"></line>
                    <line x1="226.8" y1="56.7" x2="158.8" y2="90.8" id="XMLID_43_"></line>
                    <line x1="170.1" y1="3.55271368e-15" x2="136.1" y2="68.1" id="XMLID_42_"></line>
                    <path d="M113.4,107.8 C116.5,107.8 119.1,110.3 119.1,113.5" id="XMLID_38_"></path>
                </g>
            </g>
        </g>
    </g>
</svg>